<svg id="Layer_1" data-name="Layer 1" xmlns="http://www.w3.org/2000/svg" viewBox="0 0 48 48"><defs><style>.cls-1{fill:#404041;}</style></defs><path class="cls-1" d="M28.41,9h-1.8v2a1,1,0,0,1,.63.92,1,1,0,1,1-2,0,1,1,0,0,1,.63-.92V9H22.64v3.63a1.5,1.5,0,0,1,1.14.86,6.3,6.3,0,0,1,.36,1.9.84.84,0,0,1-.64.94,1.23,1.23,0,0,1-.29,0h-.35l.05-.75a3.45,3.45,0,0,0,.43,0c.05,0,.05-.14.05-.21a5.89,5.89,0,0,0-.29-1.59.82.82,0,0,0-.83-.45.81.81,0,0,0-.83.45,5.53,5.53,0,0,0-.3,1.59c0,.07,0,.2.06.21a3.28,3.28,0,0,0,.42,0l.06.75a2.82,2.82,0,0,1-.65,0,.85.85,0,0,1-.64-.94,6.3,6.3,0,0,1,.36-1.9,1.52,1.52,0,0,1,1.14-.86V9H19.53C16.73,9,15,11.28,15,14.14V26.35a1.57,1.57,0,1,0,3.12,0V14.47h1V45.78a2.22,2.22,0,1,0,4.44,0V28h1V45.78a2.22,2.22,0,0,0,4.44,0V14.47h1V26.35a1.57,1.57,0,1,0,3.1,0V14.22C33,11.58,31.48,9,28.41,9Z"/><circle class="cls-1" cx="24" cy="4" r="4"/></svg>