<svg id="Layer_1" data-name="Layer 1" xmlns="http://www.w3.org/2000/svg" viewBox="0 0 48 48"><defs><style>.cls-1{fill:#404041;}</style></defs><ellipse class="cls-1" cx="24" cy="4" rx="3.99" ry="4"/><path class="cls-1" d="M28.39,9H25.15l-.53,1H23.38l-.53-1H19.54C16.75,9,15,11.28,15,14.14V26.35a1.57,1.57,0,1,0,3.11,0V14.47h1V45.78a2.21,2.21,0,1,0,4.42,0V28h1V45.78a2.21,2.21,0,1,0,4.42,0V14.47h1V26.35a1.56,1.56,0,1,0,3.09,0V14.22C33,11.58,31.46,9,28.39,9Zm-3,11.28-1.1,1.34a.35.35,0,0,1-.28.14.37.37,0,0,1-.29-.14l-1.09-1.34a.36.36,0,0,1-.08-.3l.81-9.39h1.24L25.48,20A.36.36,0,0,1,25.4,20.27Z"/></svg>