<svg id="Layer_1" data-name="Layer 1" xmlns="http://www.w3.org/2000/svg" viewBox="0 0 48 48"><defs><style>.cls-1{fill:#d73737;}</style></defs><path class="cls-1" d="M35.5,25.18S32.28,14,31.92,12.71a6.22,6.22,0,0,0-1.81-2.6A4.18,4.18,0,0,0,27.25,9H20.74a4.17,4.17,0,0,0-2.81,1.15,5.23,5.23,0,0,0-1.75,2.6c-.45,1.26-3.57,12-3.57,12s-.08.32-.11.51a1.61,1.61,0,0,0,1,1.75,1.87,1.87,0,0,0,2.15-1.34c0-.25.29-1,.69-2.22s.74-2.48,1.11-3.81.91-3,1.52-5.13h1L14.5,33h4.57V45.78a2.22,2.22,0,0,0,4.44,0V33h1V45.78a2.22,2.22,0,0,0,4.44,0V33h4.58L28.08,14.48h1c.61,2.11,1.11,3.79,1.53,5.13s.8,2.59,1.17,3.81.64,2.29.65,2.32A1.63,1.63,0,0,0,33.91,27h0A1.57,1.57,0,0,0,35.5,25.7,2.24,2.24,0,0,0,35.5,25.18Z"/><path class="cls-1" d="M28,4.2h0s0-.09,0-.13A4.08,4.08,0,0,0,23.93,0h0a4.07,4.07,0,0,0-4.07,4.07s0,.13,0,.13a4.62,4.62,0,0,1-1,3.1h2.56a4,4,0,0,0,2.47.84h0a4,4,0,0,0,2.48-.84H29A4.62,4.62,0,0,1,28,4.2Z"/></svg>