<svg id="Layer_1" data-name="Layer 1" xmlns="http://www.w3.org/2000/svg" viewBox="0 0 48 48"><defs><style>.cls-1{fill:#404041;}</style></defs><path class="cls-1" d="M24.08,11.81A2.89,2.89,0,0,0,26.93,10H21.08A2.93,2.93,0,0,0,24.08,11.81Z"/><path class="cls-1" d="M35.18,25.79S32.06,14.87,31.7,13.65a6.06,6.06,0,0,0-1.76-2.53,4.12,4.12,0,0,0-2.4-1.1,3.51,3.51,0,0,1-3.46,2.38A3.5,3.5,0,0,1,20.47,10a4.05,4.05,0,0,0-2.38,1.1,5,5,0,0,0-1.71,2.53c-.44,1.22-3.48,11.69-3.48,11.69a2.16,2.16,0,0,0-.1.5,1.59,1.59,0,0,0,1,1.7,1.82,1.82,0,0,0,2.09-1.3c.06-.25.29-1,.68-2.17s.72-2.41,1.08-3.71.88-2.94,1.47-5H20l-5.27,18h4.44V45.83a2.17,2.17,0,1,0,4.33,0V33.38h1V45.83a2.16,2.16,0,1,0,4.32,0V33.38h4.46l-5.3-18h.93c.59,2.05,1.08,3.69,1.49,5s.78,2.53,1.14,3.71.62,2.23.63,2.26a1.57,1.57,0,0,0,1.49,1.21h0a1.53,1.53,0,0,0,1.52-1.25A2,2,0,0,0,35.18,25.79Z"/><path class="cls-1" d="M27.94,5.31h0s0-.08,0-.12a4,4,0,0,0-.36-1.62h-7.2v0a4,4,0,0,0-.34,1.59s0,.12,0,.12a4.49,4.49,0,0,1-.94,3H21.6a3.93,3.93,0,0,0,2.4.82h0a3.93,3.93,0,0,0,2.4-.82h2.48A4.49,4.49,0,0,1,27.94,5.31Z"/><path class="cls-1" d="M24,0,20.49,1.25V3.07h7V1.25Zm.78,1.94h-.55v.55h-.5V1.94h-.55v-.5h.55V.89h.5v.55h.55Z"/></svg>